<?xml version="1.0" encoding="UTF-8" standalone="no"?>
<!DOCTYPE svg PUBLIC "-//W3C//DTD SVG 1.1//EN" "http://www.w3.org/Graphics/SVG/1.1/DTD/svg11.dtd">
<svg width="100%" height="100%" viewBox="0 0 402 257" version="1.1" xmlns="http://www.w3.org/2000/svg" xmlns:xlink="http://www.w3.org/1999/xlink" xml:space="preserve" xmlns:serif="http://www.serif.com/" style="fill-rule:evenodd;clip-rule:evenodd;stroke-linejoin:round;stroke-miterlimit:1.41421;">
    <g transform="matrix(1,0,0,1,-111.783,-377.422)">
        <g transform="matrix(1,0,0,1,-113.441,-9.30456)">
            <g transform="matrix(0.908655,0,0,1,-20.7397,-78.8245)">
                <path d="M360,474.551L349,474.551L349,472.551L360,472.551L360,474.551ZM383,474.551L372,474.551L372,472.551L383,472.551L383,474.551ZM405,474.551L394,474.551L394,472.551L405,472.551L405,474.551ZM427,474.551L416,474.551L416,472.551L427,472.551L427,474.551ZM450,474.551L438,474.551L438,472.551L450,472.551L450,474.551ZM472,474.551L461,474.551L461,472.551L472,472.551L472,474.551ZM494,474.551L483,474.551L483,472.551L494,472.551L494,474.551ZM516,474.551L505,474.551L505,472.551L516,472.551L516,474.551ZM539,474.551L528,474.551L528,472.551L539,472.551L539,474.551ZM561,474.551L550,474.551L550,472.551L561,472.551L561,474.551ZM583,474.551L572,474.551L572,472.551L583,472.551L583,474.551ZM606,474.551L594,474.551L594,472.551L606,472.551L606,474.551ZM628,474.551L617,474.551L617,472.551L628,472.551L628,474.551ZM650,474.551L639,474.551L639,472.551L650,472.551L650,474.551ZM672,474.551L661,474.551L661,472.551L672,472.551L672,474.551ZM329,481.551L327,481.551L327,470.551L329,470.551L329,472.551L338,472.551L338,474.551L329,474.551L329,481.551ZM681,488.551L679,488.551L679,476.551L681,476.551L681,488.551ZM329,504.551L327,504.551L327,493.551L329,493.551L329,504.551ZM681,510.551L679,510.551L679,499.551L681,499.551L681,510.551ZM329,526.551L327,526.551L327,515.551L329,515.551L329,526.551ZM681,532.551L679,532.551L679,521.551L681,521.551L681,532.551ZM329,548.551L327,548.551L327,537.551L329,537.551L329,548.551ZM681,554.551L679,554.551L679,543.551L681,543.551L681,554.551ZM329,571.551L327,571.551L327,559.551L329,559.551L329,571.551ZM681,577.551L679,577.551L679,566.551L681,566.551L681,577.551ZM329,593.551L327,593.551L327,582.551L329,582.551L329,593.551ZM681,599.551L679,599.551L679,588.551L681,588.551L681,599.551ZM329,615.551L327,615.551L327,604.551L329,604.551L329,615.551ZM681,621.551L679,621.551L679,610.551L681,610.551L681,621.551ZM329,637.551L327,637.551L327,626.551L329,626.551L329,637.551ZM681,644.551L679,644.551L679,632.551L681,632.551L681,644.551ZM329,660.551L327,660.551L327,649.551L329,649.551L329,660.551ZM681,666.551L679,666.551L679,655.551L681,655.551L681,666.551ZM329,682.551L327,682.551L327,671.551L329,671.551L329,682.551ZM681,688.551L679,688.551L679,677.551L681,677.551L681,688.551ZM328,705.551L327,705.551L327,693.551L329,693.551L329,704.551L328,704.551L328,705.551ZM351,705.551L339,705.551L339,703.551L351,703.551L351,705.551ZM373,705.551L362,705.551L362,703.551L373,703.551L373,705.551ZM395,705.551L384,705.551L384,703.551L395,703.551L395,705.551ZM417,705.551L406,705.551L406,703.551L417,703.551L417,705.551ZM440,705.551L428,705.551L428,703.551L440,703.551L440,705.551ZM462,705.551L451,705.551L451,703.551L462,703.551L462,705.551ZM484,705.551L473,705.551L473,703.551L484,703.551L484,705.551ZM506,705.551L495,705.551L495,703.551L506,703.551L506,705.551ZM529,705.551L518,705.551L518,703.551L529,703.551L529,705.551ZM551,705.551L540,705.551L540,703.551L551,703.551L551,705.551ZM573,705.551L562,705.551L562,703.551L573,703.551L573,705.551ZM596,705.551L584,705.551L584,703.551L596,703.551L596,705.551ZM618,705.551L607,705.551L607,703.551L618,703.551L618,705.551ZM640,705.551L629,705.551L629,703.551L640,703.551L640,705.551ZM662,705.551L651,705.551L651,703.551L662,703.551L662,705.551ZM681,705.551L674,705.551L674,703.551L679,703.551L679,699.551L681,699.551L681,705.551Z" style="fill:white;fill-rule:nonzero;"/>
            </g>
            <g transform="matrix(0.908655,0,0,1,-20.7397,-302.825)">
                <rect x="673" y="692.551" width="15" height="15" style="fill:rgb(237,237,223);"/>
            </g>
            <g transform="matrix(0.908655,0,0,1,-20.7397,-303.825)">
                <path d="M675,706.551L687,706.551L687,694.551L675,694.551L675,706.551ZM690,709.551L672,709.551L672,691.551L690,691.551L690,709.551Z" style="fill:white;fill-rule:nonzero;"/>
            </g>
            <g transform="matrix(0.908655,0,0,1,-20.7397,155.175)">
                <rect x="321" y="463.551" width="14" height="15" style="fill:rgb(237,237,223);"/>
            </g>
            <g transform="matrix(0.908655,0,0,1,-20.7397,154.175)">
                <path d="M323,477.551L334,477.551L334,465.551L323,465.551L323,477.551ZM337,480.551L320,480.551L320,462.551L337,462.551L337,480.551Z" style="fill:white;fill-rule:nonzero;"/>
            </g>
            <g transform="matrix(0.908655,0,0,1,-20.7397,-304.825)">
                <rect x="321" y="693.551" width="15" height="15" style="fill:rgb(237,237,223);"/>
            </g>
            <g transform="matrix(0.908655,0,0,1,-20.7397,-305.825)">
                <path d="M323,707.551L335,707.551L335,695.551L323,695.551L323,707.551ZM338,710.551L320,710.551L320,692.551L338,692.551L338,710.551Z" style="fill:white;fill-rule:nonzero;"/>
            </g>
            <g transform="matrix(0.908655,0,0,1,-20.7397,155.175)">
                <rect x="500" y="463.551" width="13" height="15" style="fill:rgb(237,237,223);"/>
            </g>
            <g transform="matrix(0.908655,0,0,1,-20.7397,154.175)">
                <path d="M502,477.551L512,477.551L512,465.551L502,465.551L502,477.551ZM515,480.551L499,480.551L499,462.551L515,462.551L515,480.551Z" style="fill:white;fill-rule:nonzero;"/>
            </g>
            <g transform="matrix(0.908655,0,0,1,603.13,634.855)">
                <path d="M0,-16.913L-20.809,-20.252L-12.613,1.42L-9.55,-5.627L3.243,3.339L8.132,-3.631L-4.777,-12.674L0,-16.913Z" style="fill:white;fill-rule:nonzero;"/>
            </g>
            <g transform="matrix(0.179343,0.980329,0.89078,-0.197372,622.134,634.332)">
                <rect x="0.639" y="-6.413" width="7.195" height="7.197" style="fill:white;"/>
            </g>
            <g transform="matrix(0.908655,0,0,1,617.017,489.72)">
                <path d="M0,86.075C0,88.874 -1.297,90.419 -3.797,90.419L-49.74,90.419C-52.239,90.419 -53.536,88.874 -53.536,86.075L-53.536,-0.003C-53.536,-2.801 -52.239,-4.344 -49.74,-4.344L-3.797,-4.344C-1.297,-4.344 0,-2.801 0,-0.003L0,86.075Z" style="fill:rgb(62,0,0);fill-rule:nonzero;"/>
            </g>
            <g transform="matrix(-0.908655,-0,0,1,1206.13,-35.5365)">
                <rect x="652.654" y="528.519" width="44.893" height="75.776" style="fill:white;"/>
            </g>
            <g transform="matrix(0.908655,0,0,1,610.207,545.322)">
                <path d="M0,12.118C0,13.291 -0.954,14.244 -2.131,14.244L-14.514,14.244C-15.687,14.244 -16.642,13.291 -16.642,12.118L-16.642,0C-16.642,-1.175 -15.687,-2.126 -14.514,-2.126L-2.131,-2.126C-0.954,-2.126 0,-1.175 0,0L0,12.118Z" style="fill:rgb(250,74,120);fill-rule:nonzero;"/>
            </g>
            <g transform="matrix(0.908655,0,0,1,605.939,549.373)">
                <path d="M0,4.237C-0.003,4.213 -0.021,-0.339 -0.027,-1.584C-0.027,-1.756 -0.168,-1.896 -0.34,-1.896L-1.055,-1.896L-5.134,-1.408L-5.914,-1.314C-6.071,-1.295 -6.189,-1.161 -6.189,-1.003L-6.189,3.516C-6.428,3.453 -6.691,3.43 -6.967,3.468C-7.869,3.59 -8.524,4.258 -8.428,4.958C-8.335,5.663 -7.521,6.133 -6.62,6.009C-5.72,5.884 -5.062,5.218 -5.157,4.515C-5.157,4.504 -5.166,4.498 -5.166,4.485L-5.162,4.485L-5.134,0.716L-1.055,0.231L-1.055,3.229C-1.288,3.173 -1.544,3.152 -1.81,3.186C-2.71,3.309 -3.365,3.979 -3.271,4.683C-3.178,5.383 -2.365,5.855 -1.461,5.732C-0.561,5.61 0.093,4.939 0,4.237" style="fill:white;fill-rule:nonzero;"/>
            </g>
            <g transform="matrix(0.908655,0,0,1,591.39,545.228)">
                <path d="M0,12.118C0,13.293 -0.952,14.245 -2.127,14.245L-14.512,14.245C-15.688,14.245 -16.641,13.293 -16.641,12.118L-16.641,0C-16.641,-1.177 -15.688,-2.127 -14.512,-2.127L-2.127,-2.127C-0.952,-2.127 0,-1.177 0,0L0,12.118Z" style="fill:rgb(244,190,74);fill-rule:nonzero;"/>
            </g>
            <g transform="matrix(0.908655,0,0,1,584.337,552.888)">
                <ellipse cx="0" cy="-1.81" rx="1.811" ry="1.81" style="fill:rgb(226,167,43);"/>
            </g>
            <g transform="matrix(0.908655,0,0,1,584.337,547.673)">
                <path d="M0,6.348C-1.627,6.348 -2.943,5.028 -2.943,3.406C-2.943,1.781 -1.627,0.459 0,0.459C1.621,0.459 2.943,1.781 2.943,3.406C2.943,5.028 1.621,6.348 0,6.348M-4.692,1.737C-4.878,1.737 -5.028,1.587 -5.028,1.4C-5.028,1.216 -4.878,1.066 -4.692,1.066C-4.505,1.066 -4.357,1.216 -4.357,1.4C-4.357,1.587 -4.505,1.737 -4.692,1.737M4.573,5.934L4.573,1.2C4.573,0.509 4.012,-0.05 3.319,-0.05L2.383,-0.05L1.943,-0.84L-1.662,-0.84L-2.094,-0.05L-3.19,-0.05L-3.19,-0.227C-3.19,-0.227 -3.426,-0.267 -3.93,-0.267C-4.432,-0.267 -4.692,-0.227 -4.692,-0.227L-4.692,-0.029C-5.442,0.079 -6.056,0.585 -6.056,1.2L-6.056,5.934C-6.056,6.623 -5.493,7.188 -4.806,7.188L3.319,7.188C4.012,7.188 4.573,6.623 4.573,5.934" style="fill:rgb(226,167,43);fill-rule:nonzero;"/>
            </g>
            <g transform="matrix(0.908655,0,0,1,610.207,505.043)">
                <path d="M0,12.115C0,13.292 -0.954,14.243 -2.129,14.243L-14.515,14.243C-15.689,14.243 -16.641,13.292 -16.641,12.115L-16.641,-0.002C-16.641,-1.175 -15.689,-2.128 -14.515,-2.128L-2.129,-2.128C-0.954,-2.128 0,-1.175 0,-0.002L0,12.115Z" style="fill:rgb(160,180,0);fill-rule:nonzero;"/>
            </g>
            <g transform="matrix(0.908655,0,0,1,605.062,509.137)">
                <path d="M0,-1.336C0.051,-1.375 0.051,-1.408 0.029,-1.441C0.018,-1.44 0,-1.448 0,-1.478L-0.005,-1.478C0,-1.326 -0.198,-1.41 -0.265,-1.45C-0.19,-1.505 -0.1,-1.511 -0.005,-1.478C-0.005,-1.478 0,-1.478 0,-1.479C-0.172,-1.665 -0.794,-1.623 -0.626,-1.533C-0.896,-1.525 -1.196,-1.728 -1.507,-1.494C-1.47,-1.464 -1.423,-1.485 -1.425,-1.432C-1.53,-1.441 -1.63,-1.421 -1.725,-1.375C-1.675,-1.3 -1.608,-1.266 -1.527,-1.263C-1.995,-1.196 -1.096,-1.032 -1.297,-0.584C-0.928,-0.506 -1.489,-0.156 -1.291,-0.075C-1.437,0.113 -1.092,0.235 -1.096,0.392C-0.911,0.36 -0.904,0.054 -0.724,-0.042C-0.749,-0.069 -0.116,-0.235 -0.091,-0.365C-0.19,-0.314 -0.248,-0.322 -0.268,-0.391C-0.126,-0.478 -0.15,-0.426 -0.005,-0.365C-0.005,-0.447 -0.166,-0.591 -0.171,-0.579C-0.12,-0.709 -0.052,-0.655 0.047,-0.62C0.149,-0.801 -0.032,-1.126 0.369,-1.351C0.345,-1.448 0.049,-1.357 0,-1.336" style="fill:white;fill-rule:nonzero;"/>
            </g>
            <g transform="matrix(0.908655,0,0,1,605.062,507.694)">
                <path d="M0,-0.035C0.018,-0.023 0.02,-0.013 0.029,0.001C0.038,0 0.047,-0.017 0,-0.036L0,-0.035Z" style="fill:white;fill-rule:nonzero;"/>
            </g>
            <g transform="matrix(0.908655,0,0,1,603.044,507.86)">
                <path d="M0,-0.544C-0.006,-0.341 0.304,-0.482 0.304,-0.349C0.226,-0.281 0.152,-0.294 0.097,-0.385C0.059,-0.344 0.064,-0.296 0.115,-0.242C-0.115,-0.341 -0.27,-0.72 -0.27,-0.33C-0.123,-0.313 0.046,-0.33 -0.049,-0.195C0.044,-0.224 0.072,-0.2 0.035,-0.114C0.004,-0.105 -0.085,-0.119 -0.181,-0.098C0.106,0.176 0.422,-0.143 0.332,-0.158C0.496,-0.223 0.826,-0.26 0.941,-0.413C0.563,-0.446 0.351,-0.583 0,-0.544" style="fill:white;fill-rule:nonzero;"/>
            </g>
            <g transform="matrix(0.908655,0,0,1,602.087,507.916)">
                <path d="M0,0.115C-0.023,0.043 -0.404,-0.369 -0.549,-0.274C-0.479,-0.178 -0.93,0.167 -0.436,-0.033C-0.384,0.065 -0.369,0.183 -0.483,0.21C-0.442,0.243 -0.423,0.281 -0.423,0.327C-0.281,0.417 -0.021,0.484 0.169,0.39C0.105,0.301 0.074,-0.111 0,0.115" style="fill:white;fill-rule:nonzero;"/>
            </g>
            <g transform="matrix(0.908655,0,0,1,605.696,509.964)">
                <path d="M0,-0.175C-0.312,-0.503 -0.073,0.042 -0.073,0.1C-0.149,0.117 -0.184,0.282 -0.152,0.328C0.423,0.2 -0.07,0.159 0,-0.175" style="fill:white;fill-rule:nonzero;"/>
            </g>
            <g transform="matrix(0.908655,0,0,1,605.63,510.033)">
                <path d="M0,0.032C0,-0.007 -0.032,0.039 0,0.032" style="fill:white;fill-rule:nonzero;"/>
            </g>
            <g transform="matrix(0.908655,0,0,1,601.967,507.644)">
                <path d="M0,-0.119C0.031,-0.158 0.066,-0.192 0.103,-0.233C-0.03,-0.273 -0.146,-0.253 -0.248,-0.161C0.284,-0.161 -0.286,-0.114 0.119,0.046C0.046,0.038 0.014,0.054 0.028,0.1C0.574,0.1 0.36,0.134 0.271,-0.075C0.162,0.154 0.168,-0.123 0,-0.119" style="fill:white;fill-rule:nonzero;"/>
            </g>
            <g transform="matrix(0.908655,0,0,1,601.967,507.475)">
                <path d="M0,0.05C0.113,0.048 0.046,0 0,0.05" style="fill:white;fill-rule:nonzero;"/>
            </g>
            <g transform="matrix(0.908655,0,0,1,604.873,509.238)">
                <path d="M0,-0.077C0.089,-0.072 0.117,-0.025 0.08,0.066C0.08,0.031 0.113,0.075 0.08,0.066C0.574,0.217 0.366,-0.294 0,-0.077" style="fill:white;fill-rule:nonzero;"/>
            </g>
            <g transform="matrix(0.908655,0,0,1,602.639,508.073)">
                <path d="M0,-0.396C0,-0.303 0.09,-0.15 0.132,-0.052C0.213,-0.044 0.489,0 0.561,-0.071C0.561,-0.083 -0.029,-0.378 0,-0.396" style="fill:white;fill-rule:nonzero;"/>
            </g>
            <g transform="matrix(0.908655,0,0,1,605.355,509.896)">
                <path d="M0,0.266C0.125,0.266 0.16,0.2 0.212,0.09C0.194,0.131 0.182,0.077 0.212,0.09C0.031,0 0,0.096 0,0.266" style="fill:white;fill-rule:nonzero;"/>
            </g>
            <g transform="matrix(0.908655,0,0,1,602.369,507.976)">
                <path d="M0,0.204C-0.016,0.178 0.036,0.193 0,0.204C0.075,0.174 0.158,0.059 0.153,0C-0.016,0 -0.111,0.045 0,0.204" style="fill:white;fill-rule:nonzero;"/>
            </g>
            <g transform="matrix(0.908655,0,0,1,602.258,511.822)">
                <path d="M0,0.178C-0.03,0.048 -0.278,-0.034 -0.378,0.014C-0.263,0.057 -0.077,0.212 0.012,0.203C0.012,0.122 0,0.154 0,0.178" style="fill:white;fill-rule:nonzero;"/>
            </g>
            <g transform="matrix(0.908655,0,0,1,602.523,508.045)">
                <path d="M0,0.073C0.076,0.172 0.217,0.024 0.256,-0.027C0.266,-0.027 -0.123,-0.099 0,0.073" style="fill:white;fill-rule:nonzero;"/>
            </g>
            <g transform="matrix(0.908655,0,0,1,602.392,512.064)">
                <path d="M0,0.036C0.028,0.053 0.048,0.074 0.066,0.099C0.066,0.036 0.114,0.021 0.214,0.049C0.203,0.05 0.187,0.055 0.224,0.049C0.243,-0.038 -0.056,-0.063 0,0.036" style="fill:white;fill-rule:nonzero;"/>
            </g>
            <g transform="matrix(0.908655,0,0,1,602.512,507.675)">
                <path d="M0,0.158C0.058,0.144 0.092,0.112 0.084,0.038C-0.045,-0.011 -0.084,0.033 -0.037,0.169C-0.037,0.141 -0.004,0.148 0,0.158" style="fill:white;fill-rule:nonzero;"/>
            </g>
            <g transform="matrix(0.908655,0,0,1,602.512,507.844)">
                <path d="M0,-0.011C-0.014,-0.007 -0.019,0 -0.037,0C-0.001,0 0.001,-0.006 0,-0.011" style="fill:white;fill-rule:nonzero;"/>
            </g>
            <g transform="matrix(0.908655,0,0,1,602.674,507.499)">
                <path d="M0,0.068C0.063,0.096 0.112,0.083 0.138,0.03C0.087,0.03 0.068,0.007 0.011,-0.028C0.001,0.005 0,0.038 0,0.068" style="fill:white;fill-rule:nonzero;"/>
            </g>
            <g transform="matrix(0.908655,0,0,1,602.485,507.365)">
                <path d="M0,0.128C-0.005,0.073 0.048,0.117 0,0.128C0.042,0.117 0.084,0.107 0.127,0.099C0.04,0.036 -0.016,0 0,0.128" style="fill:white;fill-rule:nonzero;"/>
            </g>
            <g transform="matrix(0.908655,0,0,1,602.668,507.923)">
                <path d="M0,-0.077C-0.086,-0.103 -0.108,-0.077 -0.071,0.004C0.007,0.026 0.029,-0.002 0,-0.077" style="fill:white;fill-rule:nonzero;"/>
            </g>
            <g transform="matrix(0.908655,0,0,1,599.692,508.856)">
                <path d="M0,-0.019C-0.009,0.029 0.029,0.033 0.1,-0.001C0.106,-0.047 0.07,-0.052 0,-0.019" style="fill:white;fill-rule:nonzero;"/>
            </g>
            <g transform="matrix(0.908655,0,0,1,600.434,509.495)">
                <path d="M0,-0.139C0,-0.091 -0.008,-0.137 0,-0.139C-0.057,-0.139 -0.064,-0.097 -0.021,-0.007C0.036,0 0.043,-0.043 0,-0.139" style="fill:white;fill-rule:nonzero;"/>
            </g>
            <g transform="matrix(0.908655,0,0,1,606.183,512.422)">
                <path d="M0,-2.795C0.057,-2.714 0.089,-2.622 0.096,-2.525C-0.023,-2.637 -0.371,-2.147 -0.645,-2.016C-0.534,-1.861 -0.437,-1.905 -0.538,-1.682C-0.826,-1.791 -0.935,-1.726 -0.868,-1.479C-0.93,-1.322 -0.891,-1.254 -0.752,-1.274C-0.614,-1.011 -1.47,-0.623 -1.31,-0.352C-1.16,-0.107 -1.336,0.398 -0.86,0.511C-0.57,0.577 0.071,0.157 0.036,0.731C0.036,0.748 0.042,0.761 0.042,0.775C-0.649,1.943 -1.883,2.763 -3.309,2.872C-3.302,2.822 -3.292,2.769 -3.283,2.725C-3.096,2.786 -2.717,2.058 -2.549,1.904C-2.393,1.759 -2.253,1.109 -2.384,1.01C-2.545,0.889 -2.843,0.822 -3.045,0.766C-3.09,0.576 -3.116,0.388 -3.375,0.419C-3.706,0.453 -3.959,-0.225 -4.162,0.248C-4.189,-0.209 -4.32,0.272 -4.515,0.243C-4.298,0.274 -4.602,0.712 -4.631,0.754C-4.896,1.117 -4.25,1.563 -4.081,1.792C-3.943,1.975 -3.959,2.493 -3.978,2.872C-6.188,2.707 -7.937,0.854 -7.937,-1.398C-7.937,-2.17 -7.729,-2.889 -7.375,-3.517C-7.09,-3.605 -6.755,-3.992 -6.627,-3.809C-6.425,-3.526 -6.274,-3.579 -6.227,-3.211C-6.207,-3.08 -6.271,-2.552 -6.089,-2.566C-6.126,-2.391 -6.612,-1.863 -6.32,-1.499C-6.133,-1.264 -6.222,-0.988 -6.107,-0.794C-5.979,-0.941 -6.253,-1.144 -6.107,-1.283C-5.972,-0.932 -5.903,-0.598 -5.652,-0.328C-5.574,-0.244 -4.627,0.318 -4.622,0.318C-4.595,0.007 -5.048,-0.113 -4.876,-0.517C-5.068,-0.535 -5.085,-0.31 -5.259,-0.346C-5.569,-0.406 -5.435,-0.884 -5.241,-1.007C-4.997,-1.166 -4.626,-1.065 -4.576,-0.781C-4.523,-0.924 -4.021,-1.494 -4.001,-1.608C-3.959,-1.861 -3.409,-1.88 -3.29,-1.934C-3.34,-1.955 -3.497,-2.238 -3.497,-2.238C-3.369,-2.309 -3.059,-2.335 -3.017,-2.233C-3.087,-2.176 -3.247,-2.016 -3.146,-2.101C-2.741,-1.998 -2.867,-2.067 -3.017,-2.217C-3.014,-2.217 -3.014,-2.217 -3.014,-2.219L-3.014,-2.217L-3.014,-2.219C-2.982,-2.257 -2.982,-2.261 -3.001,-2.25C-2.956,-2.419 -3.059,-2.944 -3.168,-3.018C-3.354,-2.814 -3.578,-3.117 -3.625,-3.283C-3.728,-3.127 -3.843,-2.491 -4.045,-2.434C-3.917,-2.473 -4.49,-3.129 -4.461,-3.201C-4.402,-3.347 -4.138,-3.454 -3.925,-3.574C-4.013,-3.499 -4.02,-3.432 -3.929,-3.378C-3.943,-3.396 -3.921,-3.402 -3.919,-3.394C-3.88,-3.461 -3.836,-3.472 -3.79,-3.418C-3.725,-3.379 -3.857,-3.536 -3.897,-3.592C-3.725,-3.691 -3.603,-3.798 -3.678,-3.946C-3.588,-4.012 -3.548,-3.822 -3.469,-3.977C-3.43,-3.875 -3.153,-3.306 -3.586,-3.524C-3.588,-3.504 -3.302,-3.145 -3.183,-3.167C-3.266,-3.263 -3.241,-3.253 -3.116,-3.215C-3.11,-3.314 -3.116,-3.413 -3.135,-3.513C-3.067,-3.524 -3.037,-3.49 -3.053,-3.418C-2.968,-3.429 -2.909,-3.472 -2.874,-3.546C-3.067,-3.513 -3.077,-3.865 -3.053,-3.902C-3.146,-3.914 -3.467,-4.077 -3.467,-4.263C-3.532,-4.263 -3.668,-4.179 -3.683,-4.182C-3.588,-4.56 -3.884,-4.051 -3.862,-4.062C-3.648,-4.001 -3.75,-3.893 -3.897,-3.778C-3.959,-4.15 -3.994,-3.44 -3.994,-4.224C-4,-4.224 -4.089,-4.104 -4.166,-4.014C-4.173,-4.024 -4.188,-4.031 -4.208,-4.042C-4.308,-4.047 -4.32,-4.016 -4.254,-3.949C-4.254,-3.948 -4.241,-3.949 -4.22,-3.95C-4.26,-3.913 -4.28,-3.898 -4.254,-3.951C-4.415,-3.95 -4.668,-4.108 -4.723,-3.917C-4.859,-4.093 -5.005,-3.951 -4.934,-4.18C-5.062,-4.263 -5.629,-4.649 -5.751,-4.409C-5.889,-4.476 -6.059,-4.682 -6.218,-4.822C-5.5,-5.361 -4.612,-5.687 -3.648,-5.687C-2.022,-5.687 -0.604,-4.774 0.122,-3.439C0.109,-3.404 0.097,-3.367 0.086,-3.324C0.062,-3.223 -0.105,-3.06 -0.136,-3.083C-0.298,-2.889 -0.134,-2.54 0,-2.795M-7.224,-3.763C-7.218,-3.759 -7.217,-3.759 -7.21,-3.757C-7.219,-3.748 -7.234,-3.743 -7.238,-3.732C-7.234,-3.743 -7.227,-3.755 -7.224,-3.763M0.733,-3.661C0.617,-3.884 0.485,-4.097 0.338,-4.298C0.316,-4.326 0.298,-4.353 0.275,-4.382C-0.626,-5.568 -2.05,-6.335 -3.648,-6.335C-6.369,-6.335 -8.588,-4.122 -8.588,-1.398C-8.588,1.237 -6.509,3.392 -3.903,3.527C-3.818,3.531 -3.735,3.54 -3.648,3.54C-3.603,3.54 -3.555,3.533 -3.507,3.533C-2.008,3.492 -0.671,2.78 0.205,1.677C0.881,0.835 1.289,-0.235 1.289,-1.398C1.289,-2.213 1.087,-2.982 0.733,-3.661" style="fill:white;fill-rule:nonzero;"/>
            </g>
            <g transform="matrix(7.49843,0,0,-8.25223,602.647,531.711)">
                <path d="M-0.751,0.992C-0.893,0.992 -1.008,0.877 -1.008,0.734L-1.008,-0.734C-1.008,-0.876 -0.893,-0.992 -0.751,-0.992L0.75,-0.992C0.893,-0.992 1.008,-0.876 1.008,-0.734L1.008,0.734C1.008,0.877 0.893,0.992 0.75,0.992L-0.751,0.992Z" style="fill:url(#_Radial1);fill-rule:nonzero;"/>
            </g>
            <g transform="matrix(0.908655,0,0,1,605.115,529.205)">
                <path d="M0,3.768L-3.909,3.768L-4.888,1.153L1.123,1.153L0,3.768ZM2.439,0.284C2.335,0.127 2.161,0.033 1.974,0.033L-5.308,0.033L-5.604,-0.755C-5.687,-0.972 -5.893,-1.12 -6.13,-1.12L-7.897,-1.12C-8.206,-1.12 -8.457,-0.868 -8.457,-0.561C-8.457,-0.252 -8.206,0 -7.897,0L-6.518,0L-6.245,0.717C-6.234,0.765 -6.216,0.813 -6.193,0.858L-4.819,4.525C-4.737,4.745 -4.529,4.888 -4.298,4.888L0.367,4.888C0.592,4.888 0.792,4.754 0.881,4.551L2.488,0.813C2.562,0.64 2.544,0.442 2.439,0.284" style="fill:rgb(247,241,227);fill-rule:nonzero;"/>
            </g>
            <g transform="matrix(0.908655,0,0,1,601.311,536.22)">
                <ellipse cx="0" cy="-0.802" rx="0.803" ry="0.802" style="fill:rgb(247,241,227);"/>
            </g>
            <g transform="matrix(0.908655,0,0,1,605.506,536.22)">
                <ellipse cx="0.001" cy="-0.802" rx="0.802" ry="0.802" style="fill:rgb(247,241,227);"/>
            </g>
            <g transform="matrix(0.908655,0,0,1,591.391,525.65)">
                <path d="M0,12.12C0,13.294 -0.954,14.244 -2.131,14.244L-14.513,14.244C-15.688,14.244 -16.642,13.294 -16.642,12.12L-16.642,0.006C-16.642,-1.171 -15.688,-2.124 -14.513,-2.124L-2.131,-2.124C-0.954,-2.124 0,-1.171 0,0.006L0,12.12Z" style="fill:rgb(47,175,184);fill-rule:nonzero;"/>
            </g>
            <g transform="matrix(0.908655,0,0,1,581.458,528.816)">
                <path d="M0,5.541L-1.118,5.756C-1.477,5.823 -1.826,5.586 -1.896,5.228L-2,4.679C-1.264,4.693 -0.239,4.731 0.682,4.821C0.633,5.173 0.366,5.469 0,5.541M1.609,0.26C0.948,0.873 -2.774,2.421 -3.323,2.645C-3.345,2.545 -3.416,2.471 -3.484,2.483L-3.663,2.518L-3.809,2.546C-3.897,2.562 -3.946,2.683 -3.92,2.812L-3.566,4.663C-3.54,4.801 -3.445,4.896 -3.354,4.879L-3.216,4.851L-3.049,4.82C-2.989,4.81 -2.952,4.747 -2.946,4.67C-2.876,4.67 -2.752,4.67 -2.58,4.672L-2.454,5.335C-2.324,6.002 -1.677,6.441 -1.011,6.312L0.107,6.1C0.725,5.98 1.17,5.477 1.243,4.887C1.859,4.968 2.381,5.079 2.662,5.229C3.433,5.648 3.581,5.873 3.581,5.873L2.282,-0.9C2.282,-0.9 2.324,-0.408 1.609,0.26" style="fill:white;fill-rule:nonzero;"/>
            </g>
            <g transform="matrix(0.908655,0,0,1,584.054,535.102)">
                <path d="M0,-7.843C-0.27,-7.79 -0.428,-7.441 -0.353,-7.061L0.888,-0.596C0.961,-0.217 1.236,0.05 1.503,-0.002C1.773,-0.055 1.932,-0.405 1.856,-0.783L0.616,-7.247C0.543,-7.627 0.267,-7.893 0,-7.843" style="fill:white;fill-rule:nonzero;"/>
            </g>
            <g transform="matrix(0.908655,0,0,1,585.193,531.977)">
                <path d="M0,-2.288L0.44,0C1.537,-1.574 0,-2.288 0,-2.288" style="fill:white;fill-rule:nonzero;"/>
            </g>
            <g transform="matrix(0.908655,0,0,1,586.609,532.991)">
                <path d="M0,-5.157C-0.211,-5.26 -0.467,-5.175 -0.572,-4.963C-0.676,-4.753 -0.589,-4.498 -0.377,-4.391C0.33,-4.045 0.823,-3.399 0.969,-2.627C1.106,-1.911 0.927,-1.175 0.471,-0.603C0.326,-0.419 0.357,-0.151 0.539,-0.005C0.643,0.074 0.769,0.103 0.888,0.08C0.983,0.062 1.073,0.009 1.139,-0.075C1.748,-0.838 1.992,-1.828 1.807,-2.788C1.608,-3.826 0.95,-4.689 0,-5.157" style="fill:white;fill-rule:nonzero;"/>
            </g>
            <g transform="matrix(0.908655,0,0,1,587.385,533.976)">
                <path d="M0,-7.56C-0.211,-7.664 -0.468,-7.578 -0.57,-7.366C-0.675,-7.155 -0.59,-6.899 -0.376,-6.796C0.779,-6.224 1.582,-5.171 1.825,-3.908C2.05,-2.74 1.754,-1.538 1.011,-0.602C0.867,-0.417 0.896,-0.151 1.081,-0.002C1.183,0.077 1.308,0.104 1.424,0.082C1.522,0.063 1.614,0.01 1.679,-0.073C2.576,-1.199 2.936,-2.658 2.662,-4.069C2.367,-5.598 1.4,-6.871 0,-7.56" style="fill:white;fill-rule:nonzero;"/>
            </g>
            <g transform="matrix(0.908655,0,0,1,591.39,505.043)">
                <path d="M0,12.112C0,13.288 -0.953,14.24 -2.13,14.24L-14.512,14.24C-15.688,14.24 -16.641,13.288 -16.641,12.112L-16.641,-0.002C-16.641,-1.177 -15.688,-2.128 -14.512,-2.128L-2.13,-2.128C-0.953,-2.128 0,-1.177 0,-0.002L0,12.112Z" style="fill:rgb(0,129,184);fill-rule:nonzero;"/>
            </g>
            <g transform="matrix(0.908655,0,0,1,587.068,507.749)">
                <path d="M0,5.879C-0.193,4.99 -1.072,4.427 -1.959,4.621C-2.304,4.695 -2.597,4.876 -2.819,5.116L-5.357,4.005C-5.364,3.952 -5.364,3.899 -5.377,3.846C-5.411,3.691 -5.473,3.547 -5.543,3.414L-3.592,1.205C-3.319,1.296 -3.023,1.321 -2.725,1.257C-1.835,1.066 -1.27,0.186 -1.464,-0.705C-1.659,-1.593 -2.54,-2.156 -3.428,-1.963C-4.318,-1.769 -4.881,-0.891 -4.688,-0.004C-4.65,0.163 -4.583,0.311 -4.507,0.454L-6.447,2.646C-6.724,2.547 -7.031,2.518 -7.335,2.586C-8.229,2.781 -8.792,3.659 -8.598,4.547C-8.404,5.436 -7.525,6.001 -6.635,5.807C-6.225,5.718 -5.888,5.478 -5.659,5.161L-3.255,6.221C-3.256,6.343 -3.245,6.461 -3.221,6.582C-3.024,7.473 -2.146,8.035 -1.258,7.842C-0.369,7.649 0.195,6.77 0,5.879" style="fill:white;fill-rule:nonzero;"/>
            </g>
            <g transform="matrix(0.908655,0,0,1,-20.7397,-190.273)">
                <g opacity="0.149994">
                    <g transform="matrix(1,0,0,1,410.22,800.999)">
                        <path d="M0,-187.41L-21.783,-172.12C-27.673,-167.976 -31.22,-161.333 -31.22,-154.263L-31.22,-21.741C-31.22,-9.563 -20.951,0 -8.425,0L187.423,0L225.563,-31.17L0,-187.41Z" style="fill-rule:nonzero;"/>
                    </g>
                </g>
            </g>
            <g transform="matrix(0.908655,0,0,1,544.001,423.43)">
                <path d="M0,145.097L-213.946,145.097L-213.946,6.825C-213.946,3.056 -210.891,0 -207.123,0L-4.514,0C-2.021,0 0,2.021 0,4.514L0,145.097Z" style="fill:rgb(62,0,0);fill-rule:nonzero;"/>
            </g>
            <g transform="matrix(0.908655,0,0,1,357.094,431.681)">
                <path d="M0,126.428L0,2.157C0,0.967 0.967,0 2.158,0L195.29,0C196.481,0 197.446,0.967 197.446,2.157L197.446,126.428L0,126.428Z" style="fill:white;fill-rule:nonzero;"/>
            </g>
            <g transform="matrix(0.908655,0,0,1,557.823,575.323)">
                <path d="M0,-7.065L-107.947,-7.065L-142.736,-7.065L-250.659,-7.065L-250.659,0L0,0L0,-7.065Z" style="fill:white;fill-rule:nonzero;"/>
            </g>
            <g transform="matrix(0.908655,0,0,1,330.061,581.26)">
                <path d="M0,-5.937L0,-5.803C0,-5.803 2.263,0 6.484,0L224.271,0C247.975,0 249.463,-2.65 250.659,-5.803L250.659,-5.937L0,-5.937Z" style="fill:rgb(62,0,0);fill-rule:nonzero;"/>
            </g>
            <g transform="matrix(0.908655,0,0,1,430.605,572.434)">
                <path d="M0,0.785C0,1.222 0.354,1.576 0.791,1.576L28.557,1.576C28.993,1.576 29.348,1.222 29.348,0.785L29.348,0C29.348,-0.437 28.993,-0.791 28.557,-0.791L0.791,-0.791C0.354,-0.791 0,-0.437 0,0L0,0.785Z" style="fill:rgb(62,0,0);fill-rule:nonzero;"/>
            </g>
            <g transform="matrix(0.908655,0,0,1,375.157,438.312)">
                <path d="M0,119.978C-4.499,119.978 -8.159,116.317 -8.159,111.821L-8.159,8.158C-8.159,3.66 -4.499,0 0,0L154.604,0C159.101,0 162.761,3.66 162.761,8.158L162.761,111.821C162.761,116.317 159.101,119.978 154.604,119.978L0,119.978Z" style="fill:white;fill-rule:nonzero;"/>
            </g>
            <g transform="matrix(0.908655,0,0,1,372.657,443.719)">
                <path d="M0,19.843L0,2.751C0,1.233 1.232,0 2.752,0L157.356,0C158.874,0 160.108,1.233 160.108,2.751L160.108,19.843L0,19.843Z" style="fill:rgb(217,217,186);fill-rule:nonzero;"/>
            </g>
            <g transform="matrix(0.908655,0,0,1,386.333,453.505)">
                <path d="M0,0.006C0,-2.128 -1.727,-3.858 -3.861,-3.858C-5.991,-3.858 -7.722,-2.128 -7.722,0.006C-7.722,2.138 -5.991,3.864 -3.861,3.864C-1.727,3.864 0,2.138 0,0.006" style="fill:rgb(4,56,63);fill-rule:nonzero;"/>
            </g>
            <g transform="matrix(0.908655,0,0,1,397.86,453.505)">
                <path d="M0,0.006C0,-2.128 -1.726,-3.858 -3.859,-3.858C-5.99,-3.858 -7.721,-2.128 -7.721,0.006C-7.721,2.138 -5.99,3.864 -3.859,3.864C-1.726,3.864 0,2.138 0,0.006" style="fill:rgb(68,107,112);fill-rule:nonzero;"/>
            </g>
            <g transform="matrix(0.908655,0,0,1,408.39,453.505)">
                <path d="M0,0.006C0,-2.128 -1.73,-3.858 -3.863,-3.858C-5.996,-3.858 -7.723,-2.128 -7.723,0.006C-7.723,2.138 -5.996,3.864 -3.863,3.864C-1.73,3.864 0,2.138 0,0.006" style="fill:rgb(93,126,131);fill-rule:nonzero;"/>
            </g>
            <g transform="matrix(-0.908655,-0,0,1,790.433,-149.536)">
                <rect x="433.142" y="621.206" width="26.434" height="4.401" style="fill:rgb(222,63,24);"/>
            </g>
            <g transform="matrix(-0.908655,-0,0,1,813.675,-129.479)">
                <rect x="433.142" y="611.176" width="52.013" height="4.404" style="fill:rgb(217,217,186);"/>
            </g>
            <g transform="matrix(-0.908655,-0,0,1,796.14,-112.852)">
                <rect x="433.142" y="602.865" width="32.715" height="4.399" style="fill:rgb(217,217,186);"/>
            </g>
            <g transform="matrix(-0.908655,-0,0,1,779.025,-96.8695)">
                <rect x="433.142" y="594.873" width="13.879" height="4.401" style="fill:rgb(217,217,186);"/>
            </g>
            <g transform="matrix(0.908655,0,0,1,494.989,524.99)">
                <path d="M0,-15.078L-16.523,-35.893L-36.37,-7.898L-50.737,-6.466L-61.685,9.329L-76.053,-7.898L-100,20.815L4.001,20.815L0,-15.078Z" style="fill:rgb(146,34,0);fill-rule:nonzero;"/>
            </g>
            <g transform="matrix(0.908655,0,0,1,-20.7397,-190.273)">
                <g opacity="0.199997">
                    <g transform="matrix(1,0,0,1,567.874,719.605)">
                        <path d="M0,-26.142L-21.17,0L-25.589,-2.127L0,-26.142Z" style="fill-rule:nonzero;"/>
                    </g>
                </g>
            </g>
            <g transform="matrix(50.5751,0,0,-64.4128,451.372,523.243)">
                <path d="M0.487,-0.095L0.273,-0.017L-0.178,-0.34L-0.737,-0.004L-0.951,-0.198L-1.082,-0.146L-1.355,-0.404L1.355,-0.404L0.947,0.404L0.487,-0.095Z" style="fill:url(#_Radial2);fill-rule:nonzero;"/>
            </g>
            <g transform="matrix(0.908655,0,0,1,-20.7397,-190.273)">
                <g opacity="0.199997">
                    <g transform="matrix(1,0,0,1,534.794,735.397)">
                        <path d="M0,-20.78L-28.769,-2.663L-25.142,0L0,-20.78Z" style="fill-rule:nonzero;"/>
                    </g>
                </g>
            </g>
            <g transform="matrix(7.0005,0.0637998,0.057972,-7.70424,557.836,461.858)">
                <rect x="-0.901" y="-0.821" width="1.803" height="1.642" style="fill:url(#_Radial3);"/>
            </g>
            <g transform="matrix(27.1161,-5.10133,-4.63535,-29.842,592.421,462.428)">
                <path d="M1.193,0.302L-1.086,0.592C-1.139,0.599 -1.189,0.562 -1.198,0.509L-1.281,0.047C-1.291,-0.007 -1.257,-0.058 -1.205,-0.071L1.033,-0.594C1.06,-0.601 1.089,-0.596 1.112,-0.58C1.136,-0.565 1.152,-0.541 1.157,-0.513L1.281,0.183C1.286,0.211 1.28,0.239 1.263,0.262C1.247,0.283 1.224,0.297 1.198,0.302C1.197,0.302 1.195,0.302 1.193,0.302Z" style="fill:url(#_Radial4);fill-rule:nonzero;"/>
            </g>
            <g transform="matrix(4.35518,0.0402972,0.0366163,-4.793,556.599,461.858)">
                <rect x="-0.211" y="-1.327" width="0.422" height="2.655" style="fill:url(#_Radial5);"/>
            </g>
            <g transform="matrix(0.908655,0,0,1,549.573,459.89)">
                <path d="M0,0.588C0.164,-19.015 -15.599,-35.039 -35.198,-35.203C-54.801,-35.364 -70.826,-19.601 -70.991,0.005C-71.152,19.605 -55.389,35.631 -35.784,35.793C-16.183,35.952 -0.158,20.188 0,0.588M-35.894,49.198C-62.897,48.971 -84.619,26.896 -84.392,-0.105C-84.17,-27.113 -62.091,-48.829 -35.089,-48.602C-8.081,-48.384 13.627,-26.308 13.405,0.696C13.182,27.702 -8.886,49.417 -35.894,49.198" style="fill:rgb(62,0,0);fill-rule:nonzero;"/>
            </g>
            <g transform="matrix(0.908655,0,0,1,-20.7397,-190.273)">
                <g opacity="0.649994">
                    <g transform="matrix(1,0,0,1,628.231,656.531)">
                        <clipPath id="_clip6">
                            <rect x="-71.119" y="-41.848" width="71.637" height="71.635" clip-rule="nonzero"/>
                        </clipPath>
                        <g clip-path="url(#_clip6)">
                            <path d="M0,-12.064C-3.334,-31.557 -21.839,-44.665 -41.336,-41.33C-60.831,-37.998 -73.934,-19.492 -70.602,0.004C-67.269,19.498 -48.763,32.601 -29.263,29.269C-9.772,25.938 3.333,7.433 0,-12.064" style="fill:white;fill-rule:nonzero;"/>
                        </g>
                    </g>
                </g>
            </g>
            <g transform="matrix(0.908655,0,0,1,528.422,454.638)">
                <path d="M0,12.264L-9.563,12.264L-18.04,17.646L-18.321,12.264L-27.619,12.264L-27.619,-5.382L0,-5.382L0,12.264Z" style="fill:rgb(47,175,184);fill-rule:nonzero;"/>
            </g>
            <g transform="matrix(0.908655,0,0,1,510.234,458.79)">
                <path d="M0,-2.111C0,-0.976 0.788,-0.488 1.624,-0.488C2.46,-0.488 3.438,-0.967 3.438,-2.208L3.438,-2.85C3.438,-4.296 2.483,-4.606 1.695,-4.606C0.906,-4.606 0,-4.119 0,-2.946L0,-2.111ZM4.631,0.348C4.631,1.84 3.82,3.462 1.6,3.462C0.275,3.462 -0.561,3.153 -0.822,3.009C-0.931,2.95 -0.858,2.792 -0.751,2.472C-0.655,2.184 -0.561,1.957 -0.452,2.007C-0.201,2.114 0.433,2.494 1.6,2.494C2.854,2.494 3.438,1.601 3.438,0.301L3.438,-0.201C3.069,0.274 2.245,0.504 1.589,0.504C-0.118,0.504 -1.192,-0.429 -1.192,-2.042L-1.192,-2.911C-1.192,-4.536 -0.284,-5.573 1.708,-5.573C3.7,-5.573 4.631,-4.751 4.631,-2.647L4.631,0.348Z" style="fill:rgb(247,245,242);fill-rule:nonzero;"/>
            </g>
            <g transform="matrix(0.908655,0,0,1,520.313,459.794)">
                <path d="M0,-4.119C0,-5.359 -0.835,-5.61 -1.754,-5.61C-2.674,-5.61 -3.521,-5.359 -3.521,-4.119L-3.521,0.01C-3.521,1.253 -2.674,1.49 -1.754,1.49C-0.835,1.49 0,1.253 0,0.01L0,-4.119ZM-1.754,2.458C-3.547,2.458 -4.713,1.777 -4.713,0.01L-4.713,-4.119C-4.713,-5.873 -3.547,-6.577 -1.754,-6.577C0.048,-6.577 1.217,-5.873 1.217,-4.119L1.217,0.01C1.217,1.777 0.036,2.458 -1.754,2.458" style="fill:rgb(247,245,242);fill-rule:nonzero;"/>
            </g>
            <g transform="matrix(0.908655,0,0,1,-20.7397,-306.825)">
                <rect x="501" y="694.551" width="15" height="15" style="fill:white;"/>
            </g>
            <g transform="matrix(0.908655,0,0,1,306.563,547.843)">
                <path d="M0,3.521C0.972,3.521 1.762,2.735 1.762,1.761C1.762,0.789 0.972,0 0,0C-0.973,0 -1.761,0.789 -1.761,1.761C-1.761,2.735 -0.973,3.521 0,3.521M7.966,4.661L7.404,5.892L7.398,5.972L7.416,6.016L7.438,6.049L7.461,6.081L7.488,6.109L7.515,6.133L7.571,6.182L7.63,6.223L7.692,6.262L7.82,6.331L7.941,6.41L8.049,6.513L8.151,6.625L8.249,6.742L8.343,6.866L8.433,6.998L8.519,7.131L8.602,7.274L8.68,7.418L8.755,7.567L8.826,7.722L8.159,8.608L7.403,9.419L7.239,9.376L7.078,9.328L6.922,9.276L6.769,9.219L6.621,9.158L6.477,9.09L6.338,9.021L6.205,8.943L6.077,8.862L5.958,8.773L5.855,8.67L5.768,8.555L5.719,8.501L5.668,8.45L5.611,8.404L5.582,8.38L5.549,8.36L5.514,8.342L5.477,8.327L5.433,8.317L5.352,8.336L4.238,9.103L3.018,9.683L2.961,9.743L2.947,9.787L2.94,9.828L2.939,9.867L2.94,9.906L2.958,10.014L2.976,10.084L3,10.154L3.054,10.287L3.095,10.427L3.111,10.574L3.118,10.726L3.117,10.881L3.108,11.035L3.095,11.192L3.074,11.352L3.046,11.511L3.014,11.675L2.974,11.837L2.929,12.001L1.849,12.251L0.749,12.385L0.651,12.248L0.559,12.109L0.473,11.966L0.391,11.825L0.318,11.683L0.251,11.54L0.189,11.395L0.136,11.252L0.091,11.108L0.056,10.962L0.044,10.818L0.052,10.674L0.05,10.601L0.043,10.529L0.03,10.456L0.021,10.419L0.009,10.384L-0.005,10.348L-0.024,10.311L-0.053,10.275L-0.126,10.237L-1.472,10.11L-2.781,9.77L-2.862,9.781L-2.9,9.803L-2.932,9.832L-2.958,9.861L-2.981,9.891L-3.002,9.92L-3.038,9.985L-3.07,10.05L-3.095,10.119L-3.14,10.256L-3.2,10.39L-3.283,10.512L-3.373,10.633L-3.473,10.751L-3.58,10.865L-3.693,10.975L-3.81,11.084L-3.935,11.189L-4.064,11.293L-4.198,11.392L-4.338,11.49L-5.326,10.985L-6.256,10.381L-6.241,10.213L-6.222,10.045L-6.197,9.884L-6.169,9.723L-6.135,9.566L-6.094,9.413L-6.048,9.264L-5.997,9.119L-5.937,8.981L-5.872,8.845L-5.788,8.728L-5.689,8.622L-5.644,8.565L-5.603,8.503L-5.566,8.442L-5.549,8.408L-5.535,8.373L-5.522,8.335L-5.514,8.294L-5.512,8.249L-5.545,8.173L-6.493,7.21L-7.277,6.109L-7.347,6.065L-7.393,6.058L-7.433,6.058L-7.472,6.065L-7.509,6.072L-7.544,6.082L-7.613,6.108L-7.679,6.138L-7.744,6.172L-7.866,6.25L-7.996,6.313L-8.14,6.355L-8.287,6.387L-8.439,6.415L-8.593,6.434L-8.751,6.448L-8.912,6.455L-9.075,6.455L-9.239,6.451L-9.407,6.44L-9.576,6.426L-10.009,5.405L-10.333,4.344L-10.213,4.223L-10.092,4.11L-9.968,3.999L-9.843,3.895L-9.715,3.796L-9.586,3.705L-9.455,3.622L-9.322,3.543L-9.188,3.475L-9.051,3.416L-8.912,3.379L-8.768,3.36L-8.696,3.346L-8.626,3.326L-8.557,3.301L-8.522,3.286L-8.489,3.27L-8.456,3.248L-8.425,3.222L-8.393,3.188L-8.369,3.109L-8.477,1.761L-8.369,0.415L-8.393,0.334L-8.425,0.301L-8.456,0.277L-8.489,0.253L-8.522,0.237L-8.557,0.222L-8.626,0.197L-8.696,0.179L-8.768,0.163L-8.912,0.145L-9.051,0.109L-9.188,0.049L-9.322,-0.021L-9.455,-0.097L-9.586,-0.18L-9.715,-0.274L-9.843,-0.373L-9.968,-0.476L-10.092,-0.586L-10.213,-0.701L-10.333,-0.82L-10.009,-1.881L-9.576,-2.901L-9.407,-2.916L-9.239,-2.928L-9.075,-2.931L-8.912,-2.931L-8.751,-2.923L-8.593,-2.911L-8.439,-2.891L-8.287,-2.866L-8.14,-2.831L-7.996,-2.791L-7.866,-2.727L-7.744,-2.651L-7.679,-2.615L-7.613,-2.585L-7.544,-2.559L-7.509,-2.549L-7.472,-2.541L-7.433,-2.535L-7.393,-2.534L-7.347,-2.54L-7.277,-2.586L-6.493,-3.687L-5.545,-4.65L-5.512,-4.726L-5.514,-4.773L-5.522,-4.812L-5.535,-4.85L-5.549,-4.883L-5.566,-4.918L-5.603,-4.981L-5.644,-5.042L-5.689,-5.098L-5.788,-5.206L-5.872,-5.323L-5.937,-5.457L-5.997,-5.596L-6.048,-5.741L-6.094,-5.887L-6.135,-6.042L-6.169,-6.2L-6.197,-6.358L-6.222,-6.523L-6.241,-6.688L-6.256,-6.858L-5.326,-7.462L-4.338,-7.966L-4.198,-7.869L-4.064,-7.771L-3.935,-7.665L-3.81,-7.561L-3.693,-7.453L-3.58,-7.34L-3.473,-7.226L-3.373,-7.111L-3.283,-6.989L-3.2,-6.865L-3.14,-6.734L-3.095,-6.595L-3.07,-6.529L-3.038,-6.461L-3.002,-6.399L-2.981,-6.367L-2.958,-6.337L-2.932,-6.308L-2.9,-6.282L-2.862,-6.255L-2.781,-6.247L-1.472,-6.586L-0.126,-6.714L-0.053,-6.751L-0.024,-6.788L-0.005,-6.825L0.009,-6.859L0.021,-6.898L0.03,-6.932L0.043,-7.004L0.05,-7.077L0.052,-7.151L0.044,-7.294L0.056,-7.439L0.091,-7.586L0.136,-7.729L0.189,-7.873L0.251,-8.015L0.318,-8.159L0.391,-8.301L0.473,-8.444L0.559,-8.585L0.651,-8.724L0.749,-8.864L1.849,-8.727L2.929,-8.479L2.974,-8.313L3.014,-8.15L3.046,-7.99L3.074,-7.829L3.095,-7.669L3.108,-7.511L3.117,-7.356L3.118,-7.205L3.111,-7.05L3.095,-6.903L3.054,-6.765L3,-6.631L2.976,-6.562L2.958,-6.492L2.946,-6.419L2.94,-6.38L2.939,-6.344L2.94,-6.303L2.947,-6.265L2.961,-6.22L3.018,-6.161L4.238,-5.58L5.352,-4.814L5.433,-4.792L5.477,-4.802L5.514,-4.817L5.549,-4.837L5.582,-4.856L5.611,-4.879L5.668,-4.926L5.719,-4.978L5.768,-5.032L5.855,-5.146L5.958,-5.251L6.077,-5.338L6.205,-5.421L6.338,-5.497L6.477,-5.569L6.621,-5.634L6.769,-5.696L6.922,-5.752L7.078,-5.805L7.239,-5.853L7.403,-5.897L8.159,-5.085L8.826,-4.2L8.755,-4.045L8.68,-3.895L8.602,-3.75L8.519,-3.61L8.433,-3.475L8.343,-3.345L8.249,-3.219L8.151,-3.102L8.049,-2.992L7.941,-2.887L7.82,-2.806L7.692,-2.739L7.63,-2.701L7.571,-2.659L7.515,-2.612L7.488,-2.585L7.461,-2.556L7.438,-2.527L7.416,-2.491L7.398,-2.45L7.404,-2.367L7.966,-1.139L8.325,0.166L8.375,0.232L8.415,0.252L8.454,0.265L8.491,0.274L8.531,0.28L8.641,0.28L8.714,0.276L8.785,0.264L8.926,0.234L9.071,0.22L9.22,0.229L9.37,0.249L9.521,0.276L9.673,0.311L9.826,0.352L9.979,0.401L10.132,0.455L10.286,0.514L10.438,0.583L10.593,0.655L10.65,1.761L10.593,2.868L10.438,2.943L10.286,3.007L10.132,3.069L9.979,3.123L9.826,3.169L9.673,3.214L9.521,3.249L9.37,3.276L9.22,3.296L9.071,3.304L8.926,3.291L8.785,3.257L8.714,3.249L8.641,3.242L8.567,3.242L8.531,3.244L8.491,3.249L8.454,3.257L8.415,3.271L8.375,3.291L8.325,3.36L7.966,4.661Z" style="fill:rgb(62,0,0);fill-rule:nonzero;"/>
            </g>
            <g transform="matrix(0.908655,0,0,1,295.605,571.155)">
                <path d="M0,15.965C4.409,15.965 7.984,12.391 7.984,7.983C7.984,3.573 4.409,-0.003 0,-0.003C-4.408,-0.003 -7.983,3.573 -7.983,7.983C-7.983,12.391 -4.408,15.965 0,15.965M17.061,12.647L17.119,12.668L17.169,12.719L17.268,12.83L17.461,13.053L17.651,13.287L17.837,13.531L18.017,13.781L18.193,14.04L17.831,15.035L17.529,15.122L17.229,15.196L16.932,15.263L16.636,15.321L16.343,15.368L16.198,15.39L16.127,15.396L16.068,15.376L14.437,18.202L14.482,18.241L14.513,18.305L14.569,18.443L14.673,18.721L14.772,19.003L14.863,19.297L14.947,19.593L15.022,19.896L14.343,20.708L14.031,20.684L13.724,20.654L13.42,20.613L13.123,20.569L12.832,20.513L12.688,20.485L12.619,20.462L12.569,20.424L10.071,22.522L10.1,22.575L10.108,22.647L10.113,22.794L10.117,23.092L10.112,23.393L10.097,23.696L10.074,24.005L10.042,24.317L9.126,24.845L8.84,24.717L8.562,24.584L8.291,24.444L8.027,24.298L7.771,24.143L7.646,24.069L7.59,24.027L7.556,23.971L4.491,25.088L4.499,25.15L4.482,25.218L4.437,25.36L4.34,25.64L4.231,25.923L4.115,26.201L3.986,26.483L3.85,26.769L2.808,26.951L2.584,26.732L2.367,26.51L2.159,26.284L1.964,26.059L1.775,25.827L1.684,25.712L1.646,25.655L1.632,25.593L-1.631,25.593L-1.645,25.655L-1.683,25.712L-1.774,25.827L-1.961,26.059L-2.16,26.284L-2.367,26.51L-2.582,26.732L-2.807,26.951L-3.849,26.769L-3.986,26.483L-4.112,26.201L-4.229,25.923L-4.337,25.64L-4.435,25.36L-4.481,25.218L-4.498,25.15L-4.49,25.088L-7.555,23.971L-7.589,24.027L-7.646,24.069L-7.771,24.143L-8.026,24.298L-8.289,24.444L-8.561,24.584L-8.839,24.717L-9.125,24.845L-10.041,24.317L-10.073,24.005L-10.095,23.696L-10.109,23.393L-10.115,23.092L-10.111,22.794L-10.107,22.647L-10.099,22.575L-10.068,22.522L-12.569,20.424L-12.619,20.462L-12.687,20.485L-12.829,20.513L-13.121,20.569L-13.419,20.613L-13.721,20.654L-14.029,20.684L-14.342,20.708L-15.023,19.896L-14.946,19.593L-14.861,19.297L-14.769,19.003L-14.672,18.721L-14.568,18.443L-14.512,18.305L-14.481,18.241L-14.435,18.202L-16.065,15.376L-16.126,15.396L-16.196,15.39L-16.342,15.368L-16.634,15.321L-16.929,15.263L-17.229,15.196L-17.527,15.122L-17.83,15.035L-18.193,14.04L-18.015,13.781L-17.834,13.531L-17.65,13.287L-17.46,13.053L-17.266,12.83L-17.168,12.719L-17.116,12.668L-17.059,12.647L-17.625,9.434L-17.689,9.433L-17.752,9.404L-17.882,9.334L-18.142,9.188L-18.4,9.031L-18.656,8.868L-18.913,8.694L-19.166,8.511L-19.166,7.453L-18.913,7.27L-18.656,7.096L-18.4,6.93L-18.142,6.776L-17.882,6.63L-17.752,6.562L-17.689,6.533L-17.625,6.532L-17.059,3.319L-17.116,3.293L-17.168,3.246L-17.266,3.134L-17.46,2.912L-17.65,2.676L-17.834,2.435L-18.015,2.185L-18.193,1.925L-17.83,0.928L-17.527,0.844L-17.229,0.768L-16.929,0.699L-16.634,0.643L-16.342,0.596L-16.196,0.575L-16.126,0.57L-16.065,0.59L-14.435,-2.234L-14.481,-2.277L-14.512,-2.342L-14.568,-2.477L-14.672,-2.756L-14.769,-3.04L-14.861,-3.331L-14.946,-3.63L-15.023,-3.931L-14.342,-4.742L-14.029,-4.721L-13.721,-4.69L-13.419,-4.649L-13.121,-4.603L-12.829,-4.547L-12.687,-4.518L-12.619,-4.498L-12.569,-4.458L-10.068,-6.558L-10.099,-6.613L-10.107,-6.681L-10.111,-6.829L-10.115,-7.126L-10.109,-7.428L-10.095,-7.732L-10.073,-8.04L-10.041,-8.352L-9.125,-8.884L-8.839,-8.755L-8.561,-8.619L-8.289,-8.479L-8.026,-8.333L-7.771,-8.182L-7.646,-8.101L-7.589,-8.061L-7.555,-8.009L-4.49,-9.124L-4.498,-9.184L-4.481,-9.255L-4.435,-9.394L-4.337,-9.674L-4.229,-9.957L-4.112,-10.237L-3.986,-10.52L-3.849,-10.803L-2.807,-10.986L-2.582,-10.767L-2.367,-10.547L-2.16,-10.322L-1.961,-10.093L-1.774,-9.865L-1.683,-9.748L-1.645,-9.691L-1.631,-9.629L1.632,-9.629L1.646,-9.691L1.684,-9.748L1.775,-9.865L1.964,-10.093L2.159,-10.322L2.367,-10.547L2.584,-10.767L2.808,-10.986L3.85,-10.803L3.986,-10.52L4.115,-10.237L4.231,-9.957L4.34,-9.674L4.437,-9.394L4.482,-9.255L4.499,-9.184L4.491,-9.124L7.556,-8.009L7.59,-8.061L7.646,-8.101L7.771,-8.182L8.027,-8.333L8.291,-8.479L8.562,-8.619L8.84,-8.755L9.126,-8.884L10.042,-8.352L10.074,-8.04L10.097,-7.732L10.112,-7.428L10.117,-7.126L10.113,-6.829L10.108,-6.681L10.1,-6.613L10.071,-6.558L12.569,-4.458L12.619,-4.498L12.688,-4.518L12.832,-4.547L13.123,-4.603L13.42,-4.649L13.724,-4.69L14.031,-4.721L14.343,-4.742L15.022,-3.931L14.947,-3.63L14.863,-3.331L14.772,-3.04L14.673,-2.756L14.569,-2.477L14.513,-2.342L14.482,-2.277L14.437,-2.234L16.068,0.59L16.127,0.57L16.198,0.575L16.343,0.596L16.636,0.643L16.932,0.699L17.229,0.768L17.529,0.844L17.831,0.928L18.193,1.925L18.017,2.185L17.837,2.435L17.651,2.676L17.461,2.912L17.268,3.134L17.169,3.246L17.119,3.293L17.061,3.319L17.627,6.532L17.689,6.533L17.754,6.562L17.883,6.63L18.143,6.776L18.402,6.93L18.658,7.096L18.914,7.27L19.169,7.453L19.169,8.511L18.914,8.694L18.658,8.868L18.402,9.031L18.143,9.188L17.883,9.334L17.754,9.404L17.689,9.433L17.627,9.434L17.061,12.647Z" style="fill:rgb(62,0,0);fill-rule:nonzero;"/>
            </g>
            <g transform="matrix(0.908655,0,0,1,264.232,584.054)">
                <path d="M0,8.084C2.232,8.084 4.043,6.274 4.043,4.042C4.043,1.81 2.232,0 0,0C-2.231,0 -4.042,1.81 -4.042,4.042C-4.042,6.274 -2.231,8.084 0,8.084M4.493,-1.77L5.271,-1.074L5.943,-0.275L6.495,0.608L6.915,1.565L7.984,2.39L9.216,2.39L9.87,1.565L9.675,0.884L9.431,0.22L9.143,-0.427L8.81,-1.051L8.436,-1.649L8.02,-2.223L7.565,-2.764L7.074,-3.273L6.549,-3.747L5.992,-4.181L5.407,-4.579L4.418,-4.212L4.038,-3.04L4.493,-1.77ZM-4.138,-2.027L-3.236,-2.552L-2.27,-2.944L-1.256,-3.195L-0.219,-3.3L0.896,-4.062L1.278,-5.232L0.694,-6.11L-0.013,-6.133L-0.719,-6.108L-1.423,-6.033L-2.12,-5.91L-2.805,-5.739L-3.479,-5.52L-4.135,-5.256L-4.77,-4.946L-5.383,-4.594L-5.969,-4.198L-6.528,-3.764L-6.484,-2.71L-5.486,-1.988L-4.138,-2.027ZM-7.05,6.101L-7.271,5.082L-7.344,4.042L-7.271,3.001L-7.05,1.981L-7.428,0.686L-8.425,-0.039L-9.44,0.244L-9.681,0.91L-9.875,1.59L-10.022,2.281L-10.119,2.981L-10.168,3.688L-10.168,4.396L-10.119,5.101L-10.022,5.8L-9.875,6.493L-9.681,7.173L-9.44,7.839L-8.425,8.121L-7.428,7.397L-7.05,6.101ZM-0.219,11.384L-1.256,11.277L-2.27,11.026L-3.236,10.636L-4.138,10.11L-5.486,10.07L-6.484,10.794L-6.528,11.847L-5.969,12.28L-5.383,12.677L-4.77,13.029L-4.135,13.339L-3.479,13.605L-2.805,13.822L-2.12,13.994L-1.423,14.116L-0.719,14.191L-0.013,14.218L0.694,14.193L1.278,13.315L0.896,12.145L-0.219,11.384ZM6.915,6.52L6.495,7.473L5.943,8.36L5.271,9.158L4.493,9.853L4.038,11.123L4.418,12.294L5.407,12.662L5.992,12.267L6.549,11.83L7.074,11.356L7.565,10.848L8.02,10.306L8.436,9.733L8.81,9.135L9.143,8.509L9.431,7.863L9.675,7.199L9.87,6.52L9.216,5.694L7.984,5.694L6.915,6.52ZM12.203,7.389L12.215,7.542L12.251,7.611L12.292,7.664L12.335,7.71L12.424,7.784L12.518,7.846L12.711,7.941L12.915,8.016L13.123,8.07L13.332,8.12L13.524,8.221L13.713,8.338L13.897,8.467L14.077,8.606L13.183,10.767L12.956,10.74L12.734,10.7L12.519,10.649L12.311,10.584L12.127,10.471L11.942,10.363L11.748,10.272L11.541,10.202L11.431,10.18L11.315,10.169L11.253,10.172L11.188,10.181L11.113,10.203L10.996,10.304L9.994,11.803L9.946,11.951L9.952,12.026L9.97,12.092L9.992,12.149L10.046,12.254L10.11,12.346L10.252,12.511L10.411,12.655L10.583,12.784L10.756,12.913L10.895,13.078L11.025,13.26L11.146,13.447L11.259,13.646L9.605,15.3L9.408,15.186L9.217,15.066L9.037,14.937L8.87,14.796L8.744,14.622L8.614,14.45L8.469,14.292L8.306,14.15L8.212,14.087L8.109,14.032L8.051,14.011L7.986,13.994L7.91,13.987L7.762,14.035L6.263,15.037L6.164,15.155L6.14,15.229L6.13,15.294L6.128,15.357L6.139,15.473L6.162,15.582L6.23,15.789L6.321,15.983L6.431,16.168L6.543,16.352L6.608,16.56L6.659,16.775L6.698,16.997L6.727,17.225L4.565,18.118L4.426,17.938L4.297,17.754L4.181,17.565L4.079,17.372L4.029,17.163L3.975,16.956L3.902,16.753L3.805,16.559L3.743,16.465L3.668,16.376L3.624,16.333L3.569,16.291L3.502,16.257L3.347,16.244L1.58,16.597L1.441,16.667L1.391,16.727L1.357,16.783L1.332,16.841L1.297,16.951L1.277,17.061L1.26,17.278L1.271,17.493L1.3,17.706L1.334,17.919L1.314,18.136L1.279,18.355L1.23,18.574L1.17,18.795L-1.168,18.795L-1.229,18.574L-1.277,18.355L-1.313,18.136L-1.333,17.919L-1.299,17.706L-1.27,17.493L-1.26,17.278L-1.273,17.061L-1.296,16.951L-1.331,16.841L-1.356,16.783L-1.39,16.727L-1.44,16.667L-1.577,16.597L-3.347,16.244L-3.5,16.257L-3.569,16.291L-3.622,16.333L-3.667,16.376L-3.743,16.465L-3.803,16.559L-3.9,16.753L-3.974,16.956L-4.027,17.163L-4.078,17.372L-4.179,17.565L-4.296,17.754L-4.425,17.938L-4.565,18.118L-6.724,17.225L-6.696,16.997L-6.657,16.775L-6.607,16.56L-6.542,16.352L-6.429,16.168L-6.321,15.983L-6.229,15.789L-6.16,15.582L-6.137,15.473L-6.127,15.357L-6.129,15.294L-6.138,15.229L-6.161,15.155L-6.261,15.037L-7.76,14.035L-7.908,13.987L-7.985,13.994L-8.05,14.011L-8.107,14.032L-8.211,14.087L-8.303,14.15L-8.467,14.292L-8.612,14.45L-8.743,14.622L-8.869,14.796L-9.036,14.937L-9.216,15.066L-9.405,15.186L-9.604,15.3L-11.257,13.646L-11.144,13.447L-11.024,13.26L-10.894,13.078L-10.754,12.913L-10.58,12.784L-10.409,12.655L-10.25,12.511L-10.107,12.346L-10.045,12.254L-9.991,12.149L-9.968,12.092L-9.952,12.026L-9.944,11.951L-9.993,11.803L-10.994,10.304L-11.111,10.203L-11.185,10.181L-11.251,10.172L-11.313,10.169L-11.43,10.18L-11.54,10.202L-11.746,10.272L-11.941,10.363L-12.126,10.471L-12.309,10.584L-12.518,10.649L-12.733,10.7L-12.956,10.74L-13.181,10.767L-14.076,8.606L-13.896,8.467L-13.711,8.338L-13.522,8.221L-13.33,8.12L-13.12,8.07L-12.913,8.016L-12.711,7.941L-12.516,7.846L-12.422,7.784L-12.333,7.71L-12.291,7.664L-12.25,7.611L-12.214,7.542L-12.202,7.389L-12.554,5.619L-12.624,5.482L-12.684,5.432L-12.741,5.398L-12.798,5.373L-12.91,5.338L-13.019,5.317L-13.236,5.302L-13.451,5.313L-13.663,5.341L-13.875,5.376L-14.093,5.355L-14.312,5.319L-14.532,5.271L-14.751,5.211L-14.751,2.873L-14.532,2.813L-14.312,2.766L-14.093,2.727L-13.875,2.708L-13.663,2.742L-13.451,2.772L-13.236,2.782L-13.019,2.767L-12.91,2.745L-12.798,2.71L-12.741,2.686L-12.684,2.651L-12.624,2.601L-12.554,2.464L-12.202,0.695L-12.214,0.542L-12.25,0.473L-12.291,0.419L-12.333,0.374L-12.422,0.3L-12.516,0.237L-12.711,0.14L-12.913,0.068L-13.12,0.013L-13.33,-0.037L-13.522,-0.138L-13.711,-0.254L-13.896,-0.384L-14.076,-0.522L-13.181,-2.683L-12.956,-2.655L-12.733,-2.617L-12.518,-2.565L-12.309,-2.501L-12.126,-2.388L-11.941,-2.28L-11.746,-2.188L-11.54,-2.119L-11.43,-2.097L-11.313,-2.085L-11.251,-2.089L-11.185,-2.097L-11.111,-2.12L-10.994,-2.22L-9.993,-3.721L-9.944,-3.866L-9.952,-3.944L-9.968,-4.009L-9.991,-4.066L-10.045,-4.172L-10.107,-4.263L-10.25,-4.427L-10.409,-4.571L-10.58,-4.702L-10.754,-4.828L-10.894,-4.995L-11.024,-5.175L-11.144,-5.366L-11.257,-5.563L-9.604,-7.216L-9.405,-7.104L-9.216,-6.982L-9.036,-6.854L-8.869,-6.713L-8.743,-6.539L-8.612,-6.368L-8.467,-6.21L-8.303,-6.065L-8.211,-6.003L-8.107,-5.95L-8.05,-5.927L-7.985,-5.91L-7.908,-5.903L-7.76,-5.951L-6.261,-6.954L-6.161,-7.07L-6.138,-7.145L-6.129,-7.212L-6.127,-7.272L-6.137,-7.39L-6.16,-7.5L-6.229,-7.706L-6.321,-7.898L-6.429,-8.085L-6.542,-8.267L-6.607,-8.478L-6.657,-8.691L-6.696,-8.914L-6.724,-9.139L-4.565,-10.035L-4.425,-9.853L-4.296,-9.672L-4.179,-9.482L-4.078,-9.288L-4.027,-9.079L-3.974,-8.873L-3.9,-8.67L-3.803,-8.476L-3.743,-8.381L-3.667,-8.292L-3.622,-8.249L-3.569,-8.21L-3.5,-8.173L-3.347,-8.161L-1.577,-8.512L-1.44,-8.584L-1.39,-8.642L-1.356,-8.7L-1.331,-8.757L-1.296,-8.867L-1.273,-8.978L-1.26,-9.195L-1.27,-9.409L-1.299,-9.623L-1.333,-9.835L-1.313,-10.052L-1.277,-10.271L-1.229,-10.49L-1.168,-10.711L1.17,-10.711L1.23,-10.49L1.279,-10.271L1.314,-10.052L1.334,-9.835L1.3,-9.623L1.271,-9.409L1.26,-9.195L1.277,-8.978L1.297,-8.867L1.332,-8.757L1.357,-8.7L1.391,-8.642L1.441,-8.584L1.58,-8.512L3.347,-8.161L3.502,-8.173L3.569,-8.21L3.624,-8.249L3.668,-8.292L3.743,-8.381L3.805,-8.476L3.902,-8.67L3.975,-8.873L4.029,-9.079L4.079,-9.288L4.181,-9.482L4.297,-9.672L4.426,-9.853L4.565,-10.035L6.727,-9.139L6.698,-8.914L6.659,-8.691L6.608,-8.478L6.543,-8.267L6.431,-8.085L6.321,-7.898L6.23,-7.706L6.162,-7.5L6.139,-7.39L6.128,-7.272L6.13,-7.212L6.14,-7.145L6.164,-7.07L6.263,-6.954L7.762,-5.951L7.91,-5.903L7.986,-5.91L8.051,-5.927L8.109,-5.95L8.212,-6.003L8.306,-6.065L8.469,-6.21L8.614,-6.368L8.744,-6.539L8.87,-6.713L9.037,-6.854L9.217,-6.982L9.408,-7.104L9.605,-7.216L11.259,-5.563L11.146,-5.366L11.025,-5.175L10.895,-4.995L10.756,-4.828L10.583,-4.702L10.411,-4.571L10.252,-4.427L10.11,-4.263L10.046,-4.172L9.992,-4.066L9.97,-4.009L9.952,-3.944L9.946,-3.866L9.994,-3.721L10.996,-2.22L11.113,-2.12L11.188,-2.097L11.253,-2.089L11.315,-2.085L11.431,-2.097L11.541,-2.119L11.748,-2.188L11.942,-2.28L12.127,-2.388L12.311,-2.501L12.519,-2.565L12.734,-2.617L12.956,-2.655L13.183,-2.683L14.077,-0.522L13.897,-0.384L13.713,-0.254L13.524,-0.138L13.332,-0.037L13.123,0.013L12.915,0.068L12.711,0.14L12.518,0.237L12.424,0.3L12.335,0.374L12.292,0.419L12.251,0.473L12.215,0.542L12.203,0.695L12.554,2.464L12.625,2.601L12.686,2.651L12.743,2.686L12.8,2.71L12.911,2.745L13.021,2.767L13.238,2.782L13.452,2.772L13.665,2.742L13.877,2.708L14.095,2.727L14.312,2.766L14.533,2.813L14.752,2.873L14.752,5.211L14.533,5.271L14.312,5.319L14.095,5.355L13.877,5.376L13.665,5.341L13.452,5.313L13.238,5.302L13.021,5.317L12.911,5.338L12.8,5.373L12.743,5.398L12.686,5.432L12.625,5.482L12.554,5.619L12.203,7.389Z" style="fill:rgb(62,0,0);fill-rule:nonzero;"/>
            </g>
            <g transform="matrix(28.5136,0,0,-31.38,259.37,539.151)">
                <path d="M-0.96,0.839C-0.973,0.835 -0.979,0.836 -0.983,0.837C-0.99,0.839 -0.991,0.841 -1.001,0.822L-1.13,0.588C-1.148,0.556 -1.154,0.518 -1.146,0.484C-1.138,0.45 -1.117,0.422 -1.087,0.406L-0.005,-0.147C-0.033,-0.377 0.078,-0.611 0.293,-0.73C0.448,-0.816 0.625,-0.824 0.779,-0.767L0.817,-0.699L0.439,-0.49C0.325,-0.427 0.294,-0.264 0.37,-0.126L0.389,-0.091C0.465,0.047 0.62,0.107 0.734,0.044L1.112,-0.165L1.15,-0.098C1.116,0.064 1.015,0.21 0.86,0.295C0.643,0.415 0.383,0.383 0.203,0.233L-0.851,0.825C-0.871,0.836 -0.9,0.844 -0.927,0.844C-0.939,0.844 -0.95,0.843 -0.96,0.839Z" style="fill:url(#_Radial7);fill-rule:nonzero;"/>
            </g>
            <g transform="matrix(0.908655,0,0,1,229.939,421.487)">
                <path d="M0,81.334C-3.346,81.334 -5.19,79.782 -5.19,76.795L-5.19,4.538C-5.19,1.552 -3.346,0 0,0L102.869,0C106.214,0 108.059,1.552 108.059,4.538L108.059,76.795C108.059,79.782 106.214,81.334 102.869,81.334L0,81.334Z" style="fill:rgb(62,0,0);fill-rule:nonzero;"/>
            </g>
            <g transform="matrix(0.908655,0,0,1,-20.7397,-172.97)">
                <rect x="284.288" y="599.624" width="90.559" height="70.999" style="fill:white;"/>
            </g>
            <g transform="matrix(21.992,0,0,-24.2028,278.429,463.917)">
                <path d="M-0.982,-0.105C-0.866,-0.649 -0.332,-0.996 0.212,-0.881C0.646,-0.789 0.955,-0.431 1.004,-0.014L0.003,0.104L-0.206,1.089C-0.75,0.974 -1.097,0.439 -0.982,-0.105Z" style="fill:url(#_Radial8);fill-rule:nonzero;"/>
            </g>
            <g transform="matrix(0.908655,0,0,1,278.354,471.422)">
                <path d="M0,-10.031L-17.587,-26.905C-26.905,-17.189 -26.586,-1.761 -16.873,7.557C-7.158,16.874 8.271,16.554 17.589,6.84C25.012,-0.898 26.318,-12.263 21.631,-21.277L0,-10.031Z" style="fill:rgb(255,189,53);fill-rule:nonzero;"/>
            </g>
            <g transform="matrix(0.908655,0,0,1,278.43,444.112)">
                <path d="M0,35.094C9.69,35.096 17.548,27.24 17.548,17.546C17.548,7.856 9.69,-0.002 -0.001,-0.002C-9.692,-0.002 -17.55,7.854 -17.55,17.546C-17.55,27.24 -9.695,35.096 0,35.094" style="fill:white;fill-rule:nonzero;"/>
            </g>
            <g transform="matrix(0.908655,0,0,1,284.158,460.366)">
                <path d="M0,2.749C-0.513,2.749 -0.937,2.969 -1.272,3.404C-1.607,3.842 -1.775,4.645 -1.775,5.812C-1.775,6.869 -1.605,7.614 -1.266,8.051C-0.927,8.489 -0.509,8.708 -0.011,8.708C0.509,8.708 0.937,8.489 1.272,8.051C1.607,7.614 1.775,6.815 1.775,5.654C1.775,4.586 1.605,3.832 1.265,3.4C0.927,2.966 0.505,2.749 0,2.749M-3.55,5.609C-3.55,4.419 -3.252,3.41 -2.657,2.584C-2.062,1.761 -1.194,1.348 -0.057,1.348C0.984,1.348 1.845,1.719 2.527,2.461C3.208,3.203 3.549,4.294 3.549,5.733C3.549,7.137 3.204,8.216 2.515,8.972C1.825,9.731 0.973,10.107 -0.045,10.107C-1.048,10.107 -1.882,9.735 -2.55,8.985C-3.216,8.235 -3.55,7.108 -3.55,5.609M-10.717,10.107L-1.65,-7.358L0,-7.358L-9.033,10.107L-10.717,10.107ZM-10.728,-5.954C-11.234,-5.954 -11.654,-5.736 -11.989,-5.301C-12.325,-4.862 -12.492,-4.058 -12.492,-2.893C-12.492,-1.83 -12.323,-1.081 -11.983,-0.648C-11.645,-0.214 -11.226,0.001 -10.728,0.001C-10.216,0.001 -9.792,-0.216 -9.457,-0.653C-9.121,-1.09 -8.954,-1.889 -8.954,-3.051C-8.954,-4.12 -9.124,-4.873 -9.463,-5.307C-9.802,-5.739 -10.224,-5.954 -10.728,-5.954M-14.268,-3.095C-14.268,-4.277 -13.97,-5.284 -13.374,-6.113C-12.778,-6.944 -11.917,-7.358 -10.785,-7.358C-9.745,-7.358 -8.884,-6.986 -8.202,-6.245C-7.52,-5.501 -7.179,-4.41 -7.179,-2.971C-7.179,-1.568 -7.524,-0.491 -8.213,0.27C-8.903,1.025 -9.753,1.403 -10.763,1.403C-11.765,1.403 -12.6,1.03 -13.266,0.284C-13.934,-0.461 -14.268,-1.587 -14.268,-3.095" style="fill:rgb(248,107,64);fill-rule:nonzero;"/>
            </g>
        </g>
    </g>
    <defs>
        <radialGradient id="_Radial1" cx="0" cy="0" r="1" gradientUnits="userSpaceOnUse" gradientTransform="matrix(1,0,0,-1,0,0.000208283)"><stop offset="0" style="stop-color:rgb(249,110,26);stop-opacity:1"/><stop offset="1" style="stop-color:rgb(239,97,14);stop-opacity:1"/></radialGradient>
        <radialGradient id="_Radial2" cx="0" cy="0" r="1" gradientUnits="userSpaceOnUse" gradientTransform="matrix(1,0,0,-1,0,1.96483e-05)"><stop offset="0" style="stop-color:rgb(249,110,26);stop-opacity:1"/><stop offset="1" style="stop-color:rgb(239,97,14);stop-opacity:1"/></radialGradient>
        <radialGradient id="_Radial3" cx="0" cy="0" r="1" gradientUnits="userSpaceOnUse" gradientTransform="matrix(0.984272,0.176657,0.176657,-0.984272,5.11163e-06,-5.74156e-05)"><stop offset="0" style="stop-color:rgb(249,110,26);stop-opacity:1"/><stop offset="1" style="stop-color:rgb(239,97,14);stop-opacity:1"/></radialGradient>
        <radialGradient id="_Radial4" cx="0" cy="0" r="1" gradientUnits="userSpaceOnUse" gradientTransform="matrix(1,0,0,-1,-3.55271e-15,-0.00209361)"><stop offset="0" style="stop-color:rgb(249,110,26);stop-opacity:1"/><stop offset="1" style="stop-color:rgb(239,97,14);stop-opacity:1"/></radialGradient>
        <radialGradient id="_Radial5" cx="0" cy="0" r="1" gradientUnits="userSpaceOnUse" gradientTransform="matrix(0.98425,0.176781,0.176781,-0.98425,-1.99511e-05,0.000223937)"><stop offset="0" style="stop-color:rgb(249,110,26);stop-opacity:1"/><stop offset="1" style="stop-color:rgb(239,97,14);stop-opacity:1"/></radialGradient>
        <radialGradient id="_Radial7" cx="0" cy="0" r="1" gradientUnits="userSpaceOnUse" gradientTransform="matrix(1,0,0,-1,0,0.0204624)"><stop offset="0" style="stop-color:rgb(249,110,26);stop-opacity:1"/><stop offset="1" style="stop-color:rgb(239,97,14);stop-opacity:1"/></radialGradient>
        <radialGradient id="_Radial8" cx="0" cy="0" r="1" gradientUnits="userSpaceOnUse" gradientTransform="matrix(1,0,0,-1,0,0.0933066)"><stop offset="0" style="stop-color:rgb(249,110,26);stop-opacity:1"/><stop offset="1" style="stop-color:rgb(239,97,14);stop-opacity:1"/></radialGradient>
    </defs>
</svg>
