<?xml version="1.0" encoding="UTF-8" standalone="no"?>
<!DOCTYPE svg PUBLIC "-//W3C//DTD SVG 1.1//EN" "http://www.w3.org/Graphics/SVG/1.1/DTD/svg11.dtd">
<svg width="100%" height="100%" viewBox="0 0 886 783" version="1.1" xmlns="http://www.w3.org/2000/svg" xmlns:xlink="http://www.w3.org/1999/xlink" xml:space="preserve" xmlns:serif="http://www.serif.com/" style="fill-rule:evenodd;clip-rule:evenodd;stroke-linejoin:round;stroke-miterlimit:1.41421;">
    <g transform="matrix(1,0,0,1,-1168.32,733.739)">
        <g transform="matrix(9.54948,0,0,8.6569,-1661.43,-3172.76)">
            <g transform="matrix(1,0,0,1,-24.7483,13.275)">
                <g transform="matrix(1,0,0,1,-30.5714,14.18)">
                    <g>
                        <g>
                            <g transform="matrix(1.02601,0,0,1,-14.4285,-13.1344)">
                                <g transform="matrix(0.0910133,0,0,0.113187,241.567,198.365)">
                                    <path d="M1620.36,794.157C1620.36,851.925 1602.93,895.326 1568.08,924.359C1533.23,953.392 1481.39,967.909 1412.58,967.909L1286.52,967.909L1286.52,925.814L1331.75,925.814L1331.75,672.576L1286.52,672.576L1286.52,630.481L1414.82,630.481C1483.93,630.481 1535.47,643.542 1569.42,669.665C1603.38,695.787 1620.36,737.285 1620.36,794.157ZM1564.83,796.396C1564.83,767.736 1559.8,744.375 1549.72,726.313C1539.64,708.251 1523.67,694.78 1501.8,685.898C1479.94,677.016 1451.09,672.576 1415.26,672.576L1382.8,672.576L1382.8,925.814L1414.82,925.814C1466.76,925.814 1504.75,915.403 1528.79,894.579C1552.82,873.756 1564.83,841.028 1564.83,796.396Z" style="fill:none;stroke:white;stroke-width:9.07px;"/>
                                </g>
                                <g transform="matrix(0.0910133,0,0,0.113187,239.598,198.365)">
                                    <path d="M1911.44,718.924C1911.44,740.569 1905.32,758.742 1893.08,773.446C1880.84,788.149 1863.75,798.262 1841.81,803.785L1901.37,925.814L1942.57,925.814L1942.57,967.909L1866.88,967.909L1792.32,810.726L1745.08,810.726L1745.08,925.814L1788.07,925.814L1788.07,967.909L1648.35,967.909L1648.35,925.814L1694.03,925.814L1694.03,672.576L1648.35,672.576L1648.35,630.481L1788.52,630.481C1831.95,630.481 1863.3,637.572 1882.56,651.752C1901.81,665.933 1911.44,688.324 1911.44,718.924ZM1858.82,718.029C1858.82,702.355 1853.9,690.861 1844.05,683.547C1834.19,676.233 1818.6,672.576 1797.25,672.576L1745.08,672.576L1745.08,768.408L1794.11,768.408C1816.06,768.408 1832.33,764.601 1842.93,756.989C1853.52,749.376 1858.82,736.389 1858.82,718.029Z" style="fill:none;stroke:white;stroke-width:9.07px;"/>
                                </g>
                                <g transform="matrix(0.0910133,0,0,0.113187,241.567,198.365)">
                                    <path d="M2194.01,729L2194.01,672.576L2049.59,672.576L2049.59,773.11L2175.2,773.11L2175.2,815.204L2049.59,815.204L2049.59,925.814L2194.01,925.814L2194.01,864.24L2235.66,864.24L2235.66,967.909L1955.1,967.909L1955.1,925.814L1998.54,925.814L1998.54,672.576L1955.1,672.576L1955.1,630.481L2235.66,630.481L2235.66,729L2194.01,729Z" style="fill:none;stroke:white;stroke-width:9.07px;"/>
                                </g>
                            </g>
                            <g transform="matrix(0.0803766,0,0,0.0869328,157.396,282.152)">
                                <text x="2473.49px" y="692.395px" style="font-family:'Rockwell-Italic', 'Rockwell', serif;font-style:italic;font-size:652.776px;fill:none;stroke:white;stroke-width:11.18px;">A</text>
                                <text x="2943.63px" y="692.395px" style="font-family:'Rockwell-Regular', 'Rockwell', serif;font-size:652.776px;fill:none;stroke:white;stroke-width:11.18px;">M</text>
                            </g>
                        </g>
                    </g>
                </g>
                <g transform="matrix(0.51078,0,0,0.529204,181.052,78.052)">
                    <rect x="275.157" y="360.907" width="179.429" height="168.54" style="fill:none;stroke:rgb(255,59,0);stroke-width:2.11px;"/>
                </g>
            </g>
        </g>
    </g>
</svg>
